<?xml version="1.0" encoding="utf-8"?>
<!-- Generator: Adobe Illustrator 16.0.0, SVG Export Plug-In . SVG Version: 6.00 Build 0)  -->
<!DOCTYPE svg PUBLIC "-//W3C//DTD SVG 1.1//EN" "http://www.w3.org/Graphics/SVG/1.1/DTD/svg11.dtd">
<svg version="1.1" id="Layer_1" xmlns="http://www.w3.org/2000/svg" xmlns:xlink="http://www.w3.org/1999/xlink" x="0px" y="0px"
	 width="160px" height="160px" viewBox="0 0 160 160" enable-background="new 0 0 160 160" xml:space="preserve">
<circle fill="#A80231" cx="80" cy="80" r="80"/>
<rect x="67.1" y="56.365" fill="#FFFFFF" width="25.8" height="10.319"/>
<g>
	<polygon fill="#FFFFFF" points="87.658,43.631 87.658,32.147 72.343,32.147 72.343,43.631 72.343,58.945 87.658,58.945 	"/>
	<rect x="60.859" y="43.631" fill="#FFFFFF" width="38.282" height="15.312"/>
	<path fill="#FFFFFF" d="M91.486,62.773h-3.828H72.343h-3.829H30.233v65.081h99.536V62.773H91.486z M91.487,81.914h19.11v3.828
		h-19.11V81.914z M89.572,116.368h-3.828v-1.548c-0.042-0.079-0.187-0.29-0.592-0.463c-2.668-1.111-9.076-3.328-12.9-4.458
		c-3.141-0.992-3.141-3.859-3.141-5.229c0-1.953,0.708-3.708,1.327-5.017c0.381-0.817,0.852-2.274,1.007-3.463l0.152-1.134
		l0.748-0.868c0.116-0.128,0.699-0.898,1.135-3.051c0.286-1.453,0.184-1.712,0.12-1.873c-0.082-0.215-0.14-0.373-0.19-0.537
		l-0.043-0.149l-0.034-0.151c-0.333-1.559,0.113-5.42,0.425-7.142c0.103-0.561-0.042-2.657-1.423-4.426
		c-1.215-1.549-3.106-2.426-5.625-2.604l-2.295,0.003c-2.475,0.18-4.345,1.053-5.553,2.601c-1.382,1.77-1.529,3.866-1.425,4.429
		c0.313,1.722,0.758,5.594,0.424,7.142c-0.08,0.344-0.167,0.592-0.269,0.835c-0.06,0.159-0.162,0.43,0.125,1.883
		c0.431,2.142,1.016,2.907,1.13,3.038l0.752,0.868l0.152,1.145c0.152,1.186,0.623,2.636,1.007,3.454
		c0.629,1.337,0.919,2.945,0.919,5.067c0,1.373,0,4.233-3.047,5.201c-4.053,1.203-10.577,3.554-12.933,4.582
		c-0.064,0.026-0.109,0.05-0.142,0.066c-0.001,0.035-0.005,0.082-0.005,0.146v1.652h-3.833c0-0.673,0-1.27,0-1.652
		c0-1.365,0.48-2.876,2.443-3.719c2.478-1.082,9.13-3.487,13.307-4.724c0.322-0.101,0.377-0.118,0.377-1.555
		c0-1.545-0.179-2.635-0.556-3.436c-0.519-1.096-1.129-2.938-1.342-4.597c-0.617-0.71-1.452-2.112-1.986-4.79
		c-0.471-2.354-0.25-3.214,0.06-4.02c0.034-0.089,0.071-0.168,0.095-0.266c0.117-0.541-0.045-3.412-0.451-5.641
		c-0.278-1.528,0.074-4.78,2.18-7.467c1.325-1.7,3.873-3.79,8.438-4.076l2.55-0.001c4.647,0.288,7.19,2.377,8.517,4.078
		c2.104,2.688,2.451,5.943,2.178,7.467c-0.406,2.229-0.569,5.1-0.452,5.654c0.026,0.084,0.059,0.163,0.093,0.252
		c0.315,0.806,0.532,1.663,0.064,4.02c-0.537,2.678-1.374,4.08-1.985,4.79c-0.22,1.655-0.833,3.498-1.345,4.597
		c-0.474,1.006-0.961,2.203-0.961,3.387c0,1.436,0.055,1.45,0.398,1.558c4.042,1.194,10.566,3.457,13.331,4.611
		c1.96,0.843,2.904,2.509,2.904,3.877C89.572,115.095,89.572,115.695,89.572,116.368z M118.282,97.227H91.485v-3.828h26.797V97.227z
		 M118.282,74.257H91.489v-3.829h26.793V74.257z"/>
</g>
</svg>
