<?xml version="1.0" encoding="utf-8"?>
<!-- Generator: Adobe Illustrator 16.0.0, SVG Export Plug-In . SVG Version: 6.00 Build 0)  -->
<!DOCTYPE svg PUBLIC "-//W3C//DTD SVG 1.1//EN" "http://www.w3.org/Graphics/SVG/1.1/DTD/svg11.dtd">
<svg version="1.1" id="Layer_1" xmlns="http://www.w3.org/2000/svg" xmlns:xlink="http://www.w3.org/1999/xlink" x="0px" y="0px"
	 width="160px" height="160px" viewBox="0 0 160 160" enable-background="new 0 0 160 160" xml:space="preserve">
<circle fill="#A80231" cx="80" cy="80.643" r="80"/>
<g>
	<path fill="#FFFFFF" d="M127.814,51.965v71.694c0,1.94-0.71,3.622-2.128,5.04c-1.42,1.42-3.101,2.129-5.041,2.129H41.784
		c-1.941,0-3.623-0.709-5.041-2.129c-1.42-1.418-2.128-3.1-2.128-5.04V51.965c0-1.941,0.708-3.621,2.128-5.041
		c1.418-1.419,3.1-2.128,5.041-2.128h7.169v-5.377c0-2.464,0.876-4.573,2.633-6.328c1.754-1.755,3.865-2.633,6.329-2.633h3.584
		c2.465,0,4.574,0.878,6.329,2.633c1.754,1.755,2.632,3.864,2.632,6.328v5.377h21.509v-5.377c0-2.464,0.876-4.573,2.632-6.328
		c1.755-1.755,3.865-2.633,6.329-2.633h3.586c2.463,0,4.57,0.878,6.328,2.633c1.755,1.755,2.633,3.864,2.633,6.328v5.377h7.169
		c1.94,0,3.621,0.709,5.041,2.128C127.104,48.344,127.814,50.024,127.814,51.965z M41.784,82.435h16.13V66.304h-16.13V82.435z
		 M41.784,103.944h16.13V86.021h-16.13V103.944z M41.784,123.659h16.13v-16.131h-16.13V123.659z M63.292,55.55V39.419
		c0-0.484-0.179-0.905-0.533-1.26c-0.355-0.354-0.776-0.532-1.261-0.532h-3.584c-0.486,0-0.905,0.178-1.261,0.532
		c-0.355,0.354-0.531,0.775-0.531,1.26V55.55c0,0.486,0.176,0.905,0.531,1.261c0.355,0.355,0.775,0.531,1.261,0.531h3.584
		c0.485,0,0.905-0.176,1.261-0.531C63.113,56.456,63.292,56.037,63.292,55.55z M61.499,82.435h17.923V66.304H61.499V82.435z
		 M61.499,103.944h17.923V86.021H61.499V103.944z M61.499,123.659h17.923v-16.131H61.499V123.659z M83.006,82.435h17.924V66.304
		H83.006V82.435z M83.006,103.944h17.924V86.021H83.006V103.944z M83.006,123.659h17.924v-16.131H83.006V123.659z M106.307,55.55
		V39.419c0-0.484-0.178-0.905-0.532-1.26c-0.354-0.354-0.775-0.532-1.259-0.532h-3.586c-0.485,0-0.906,0.178-1.26,0.532
		c-0.356,0.354-0.533,0.775-0.533,1.26V55.55c0,0.486,0.177,0.905,0.533,1.261c0.354,0.355,0.774,0.531,1.26,0.531h3.586
		c0.483,0,0.904-0.176,1.259-0.531C106.129,56.456,106.307,56.037,106.307,55.55z M104.516,82.435h16.13V66.304h-16.13V82.435z
		 M104.516,103.944h16.13V86.021h-16.13V103.944z M104.516,123.659h16.13v-16.131h-16.13V123.659z"/>
</g>
</svg>
