<?xml version="1.0" encoding="utf-8"?>
<!-- Generator: Adobe Illustrator 18.0.0, SVG Export Plug-In . SVG Version: 6.00 Build 0)  -->
<!DOCTYPE svg PUBLIC "-//W3C//DTD SVG 1.1//EN" "http://www.w3.org/Graphics/SVG/1.1/DTD/svg11.dtd">
<svg version="1.1" id="Layer_1" xmlns="http://www.w3.org/2000/svg" xmlns:xlink="http://www.w3.org/1999/xlink" x="0px" y="0px"
	 viewBox="0 0 512 512" enable-background="new 0 0 512 512" xml:space="preserve">
<g>
	<defs>
		<circle id="SVGID_1_" cx="256" cy="256" r="256"/>
	</defs>
	<clipPath id="SVGID_2_">
		<use xlink:href="#SVGID_1_"  overflow="visible"/>
	</clipPath>
	<circle clip-path="url(#SVGID_2_)" fill="#0090FF" cx="256" cy="256" r="256"/>
	<g clip-path="url(#SVGID_2_)">
		<g>
			<path fill="#FFFFFF" d="M172.4,132.1c0,10.6-8.6,19.3-19.3,19.3c-10.6,0-19.3-8.6-19.3-19.3c0-10.6,8.6-19.3,19.3-19.3
				C163.7,112.8,172.4,121.4,172.4,132.1z"/>
			<g>
				<g>
					<path fill="#FFFFFF" d="M143.9,311.7h18.5v-19c-6.5-0.6-12.7-1.4-18.5-2.5V311.7z M162.3,178.5h-18.5v100.4
						c5.7,0.8,11.9,1.2,18.5,1.4V178.5z M359.3,111.1h55.2V94.8H341v15.9c6.4,0.5,12.5,1.3,18.3,2.4V111.1z M341,227.3h18.3v-64.2
						h40.2v-16.3h-40.2v-22.3c-5.7-0.7-11.8-1.1-18.3-1.2V227.3z M359.3,113v11.5c41.9,5.1,61.7,25.4,51.7,55.1
						c-7.7,23-37.7,48.1-75.1,70.9c35.4-16.4,63.9-37.4,78.1-59.8C437.8,153.1,413.7,122.7,359.3,113z M93.6,223.9
						c7.7-23,37.7-48.1,75.1-70.9c-35.4,16.4-63.9,37.4-78.1,59.8c-23.6,37.4-0.2,67.5,53.2,77.5v-11.4
						C103,273.4,83.7,253.3,93.6,223.9z M308.3,110c-17.8,0.7-24.6,0.9-42.5,4.4c-15,2-40.7,9.5-54.4,18.4
						c-15.1,9.8-25.4,21.1-30.6,33.7c-5.3,12.6-4.6,24.1,2.2,34.4c4.5,6.9,10.9,11.4,19.4,13.4c8.4,2,20.3,2,35.7-0.2l24.5-3.6
						c19.9-2.7,32.4-0.1,37.6,7.9c3.2,4.9,3.3,10.7,0.3,17.3c-3,6.6-8.4,12.5-16.2,17.5c-10.1,6.5-26.5,15.4-52,19.8
						c-2.1,0.5-5.4,1-7.6,1.5c-23.5,4.3-44.3,6.1-62.2,5.7v12.5c10.5,0.9,21.9,1.2,34,0.8c17.8-0.7,1.1,0.2,20.7-1.5
						c2.5-0.3,9.6-0.9,24.7-3.4c18.9-3.7,38.1-10.8,53.5-19c15.7-8.4,24.8-20.8,29.9-33.4c5-12.6,4.1-24.2-2.7-34.7
						c-9.6-14.8-28.1-20.1-55.4-16l-24.5,3.8c-11,1.7-19.5,2.2-25.6,1.2c-6.1-0.9-10.4-3.3-12.9-7.2c-2.9-4.4-2.6-9.7,0.8-15.9
						c3.4-6.2,9.1-12,17.2-17.2c14.4-9.4,30.6-15,58.1-21.2c22.9-4.2,43.4-6,60.9-5.7v-12.6C330.9,109.8,319.9,109.6,308.3,110z"/>
				</g>
			</g>
		</g>
		<g>
			<path fill="#FFFFFF" d="M177.3,407.6c0,3.6-1.8,5.4-5.4,5.4h-49c-11.2,0-19.9-1-26.2-3c-9.7-3.3-14.5-9.7-14.5-19.1v-56.4
				c0-3.6,1.8-5.4,5.4-5.4c3.4,0,5.6,0.1,6.6,0.4c2.2,0.6,3.3,2.3,3.3,5V391c0,4.4,3.5,7.2,10.6,8.6c2.2,0.6,7.5,0.9,15.7,0.9H172
				C175.5,400.5,177.3,402.9,177.3,407.6z"/>
			<path fill="#FFFFFF" d="M202.8,407.6c0,3.6-1.8,5.4-5.4,5.4c-1.6,0-2.9,0-4-0.1c-1.1-0.1-2-0.2-2.6-0.2c-2.2-0.7-3.3-2.4-3.3-5.1
				v-73.1c0-2.7,1.1-4.4,3.2-5c0.5-0.1,1.3-0.2,2.4-0.2c1.1-0.1,2.5-0.1,4.3-0.1c3.6,0,5.4,1.8,5.4,5.4V407.6z"/>
			<path fill="#FFFFFF" d="M329.8,333.5c0,1.1-0.5,2.5-1.6,4.1l-49.6,70.5c-2.4,3.4-5.5,5.1-9.2,5.1c-3.8,0-6.8-1.7-9.2-5
				l-49.7-70.6c-1.1-1.6-1.6-3-1.6-4.1c0-3,2.5-4.5,7.5-4.5c3.8,0,6.3,0.8,7.5,2.5l45.4,64.9l45.2-64.9c1.1-1.7,3.6-2.5,7.5-2.5
				C327.3,329,329.8,330.5,329.8,333.5z"/>
			<path fill="#FFFFFF" d="M428.2,371.1c0,4.4-1.9,6.7-5.7,6.7h-73.6v13.8c0,5.9,6.5,8.9,19.6,8.9h54c3.6,0,5.4,1.8,5.4,5.4
				c0,4.8-1.8,7.2-5.4,7.2h-54.7c-8,0-15.3-1.4-22-4.3c-8.2-3.7-12.3-9.3-12.3-16.7v-41.6c0-4,1.4-7.6,4.1-10.9
				c5.9-7,16.4-10.5,31.5-10.5H384c3.5,0,5.3,2.3,5.3,7c0,3.6-1.8,5.4-5.3,5.4h-2.2h-1.4h-0.8c-0.5,0-0.8,0-0.8-0.1
				c-1.1,0-2.1-0.1-3-0.1c-0.8,0-1.5,0-2.1,0c-16.8,0-25.1,3-25.1,9.1v14.7h73.8C426.3,365.2,428.2,367.2,428.2,371.1z"/>
		</g>
	</g>
</g>
</svg>
