<?xml version="1.0" encoding="utf-8"?>
<!-- Generator: Adobe Illustrator 18.0.0, SVG Export Plug-In . SVG Version: 6.00 Build 0)  -->
<!DOCTYPE svg PUBLIC "-//W3C//DTD SVG 1.1//EN" "http://www.w3.org/Graphics/SVG/1.1/DTD/svg11.dtd">
<svg version="1.1" xmlns="http://www.w3.org/2000/svg" xmlns:xlink="http://www.w3.org/1999/xlink" x="0px" y="0px"
	 viewBox="0 0 512 512" enable-background="new 0 0 512 512" xml:space="preserve">
<g id="Layer_1">
	<circle fill="#B20738" cx="256" cy="256" r="256"/>
</g>
<g id="Layer_2">
	<g>
		<path fill="#FFFFFF" d="M374.7,298.3h-92.9c-0.6,0-1-0.4-1-1V208c0-0.6,0.4-1,1-1h92.9c0.6,0,1,0.4,1,1v89.3
			C375.7,297.8,375.3,298.3,374.7,298.3z"/>
		<path fill="#FFFFFF" d="M374.7,336.4h-92.9c-0.6,0-1-0.4-1-1v-13.2c0-0.6,0.4-1,1-1h92.9c0.6,0,1,0.4,1,1v13.2
			C375.7,336,375.3,336.4,374.7,336.4z"/>
		<path fill="#FFFFFF" d="M374.7,374.4h-92.9c-0.6,0-1-0.4-1-1v-13.2c0-0.6,0.4-1,1-1h92.9c0.6,0,1,0.4,1,1v13.2
			C375.7,373.9,375.3,374.4,374.7,374.4z"/>
		<path fill="#FFFFFF" d="M263.7,223.4h-92.9c-0.6,0-1-0.4-1-1v-13.2c0-0.6,0.4-1,1-1h92.9c0.6,0,1,0.4,1,1v13.2
			C264.7,223,264.2,223.4,263.7,223.4z"/>
		<path fill="#FFFFFF" d="M264.6,261.7h-92.9c-0.6,0-1-0.4-1-1v-13.2c0-0.6,0.4-1,1-1h92.9c0.6,0,1,0.4,1,1v13.2
			C265.6,261.3,265.2,261.7,264.6,261.7z"/>
		<path fill="#FFFFFF" d="M264.6,298.5h-92.9c-0.6,0-1-0.4-1-1v-13.2c0-0.6,0.4-1,1-1h92.9c0.6,0,1,0.4,1,1v13.2
			C265.6,298.1,265.2,298.5,264.6,298.5z"/>
		<path fill="#FFFFFF" d="M264.6,337.2h-92.9c-0.6,0-1-0.4-1-1V323c0-0.6,0.4-1,1-1h92.9c0.6,0,1,0.4,1,1v13.2
			C265.6,336.7,265.2,337.2,264.6,337.2z"/>
		<path fill="#FFFFFF" d="M264,374h-92.9c-0.6,0-1-0.4-1-1v-13.2c0-0.6,0.4-1,1-1H264c0.6,0,1,0.4,1,1V373
			C265,373.6,264.5,374,264,374z"/>
		<path fill="none" stroke="#FFFFFF" stroke-width="16" stroke-miterlimit="10" d="M400.8,404.3H140V104.2c0-0.6,0.4-1,1-1h259.8
			c0.6,0,1,0.4,1,1v299.2C401.8,403.9,401.3,404.3,400.8,404.3z"/>
		<path fill="none" stroke="#FFFFFF" stroke-width="16" stroke-miterlimit="10" d="M140,404.4h-28.8c-0.6,0-1-0.4-1-1V142.1
			c0-0.6,0.4-1,1-1H140V404.4z"/>
		<path fill="#FFFFFF" d="M374.7,185.6h-204c-0.6,0-1-0.4-1-1v-51.8c0-0.6,0.4-1,1-1h204c0.6,0,1,0.4,1,1v51.8
			C375.7,185.2,375.3,185.6,374.7,185.6z"/>
	</g>
</g>
</svg>
