<?xml version="1.0" encoding="utf-8"?>
<!-- Generator: Adobe Illustrator 16.0.0, SVG Export Plug-In . SVG Version: 6.00 Build 0)  -->
<!DOCTYPE svg PUBLIC "-//W3C//DTD SVG 1.1//EN" "http://www.w3.org/Graphics/SVG/1.1/DTD/svg11.dtd">
<svg version="1.1" id="Layer_1" xmlns="http://www.w3.org/2000/svg" xmlns:xlink="http://www.w3.org/1999/xlink" x="0px" y="0px"
	 width="160px" height="160px" viewBox="0 0 160 160" enable-background="new 0 0 160 160" xml:space="preserve">
<circle fill="#0090FF" cx="80" cy="80" r="80"/>
<g>
	<path fill="#FFFFFF" d="M103.271,29.349L85.828,46.794c13.326,3.746,23.6,14.801,26.196,28.563L130.65,56.73L103.271,29.349z"/>
	<path fill="#FFFFFF" d="M40.516,92.106l-11.167,11.162l5.705,22.132l21.674,5.247L69.076,118.3
		C55.315,115.71,44.26,105.433,40.516,92.106z"/>
	<path fill="#FFFFFF" d="M108.63,78.75c-1.483-14.311-12.136-25.891-25.976-28.782l-0.005,0.007
		c-2.182-0.457-4.44-0.703-6.755-0.703c-14.949,0-27.581,10.028-31.575,23.702c-0.85,2.925-1.33,6.008-1.33,9.205
		c0,0.87,0.064,1.729,0.127,2.582c0.023,0.266,0.018,0.535,0.043,0.799c0.038,0.384,0.119,0.752,0.173,1.134
		c0.101,0.738,0.197,1.487,0.348,2.214c2.878,13.869,14.479,24.535,28.809,26.01c1.05,0.104,2.116,0.157,3.194,0.164
		c0.074,0,0.141,0.013,0.21,0.013c18.146-0.003,32.906-14.766,32.906-32.911c0-1.158-0.062-2.301-0.178-3.427L108.63,78.75z
		 M86.139,95.166L73.958,82.982V60.886h3.873v20.493l11.047,11.049L86.139,95.166z"/>
</g>
</svg>
