<?xml version="1.0" encoding="utf-8"?>
<!-- Generator: Adobe Illustrator 16.0.0, SVG Export Plug-In . SVG Version: 6.00 Build 0)  -->
<!DOCTYPE svg PUBLIC "-//W3C//DTD SVG 1.1//EN" "http://www.w3.org/Graphics/SVG/1.1/DTD/svg11.dtd">
<svg version="1.1" id="Layer_1" xmlns="http://www.w3.org/2000/svg" xmlns:xlink="http://www.w3.org/1999/xlink" x="0px" y="0px"
	 width="160px" height="160px" viewBox="0 0 160 160" enable-background="new 0 0 160 160" xml:space="preserve">
<circle fill="#002156" cx="80" cy="80" r="80"/>
<path fill="#FFFFFF" d="M129.491,89.898V70.102h-11.028c-0.889-3.707-2.283-7.209-4.135-10.431l7.665-7.667l-13.995-13.998
	l-7.509,7.508c-3.255-1.976-6.809-3.489-10.591-4.464V30.509H70.102v10.542c-3.782,0.975-7.335,2.488-10.591,4.464l-7.509-7.508
	L38.007,52.005l7.667,7.667c-1.849,3.221-3.246,6.725-4.137,10.431H30.509v19.796h11.363c0.977,3.539,2.432,6.87,4.293,9.938
	l-8.16,8.159l13.996,14.001l8.321-8.324c3.03,1.745,6.31,3.077,9.777,3.972v11.848h19.797v-11.848
	c3.465-0.892,6.746-2.227,9.773-3.972l8.323,8.321l13.995-13.998l-8.161-8.159c1.862-3.067,3.319-6.396,4.295-9.938H129.491z
	 M80,93.861c-7.656,0-13.857-6.205-13.857-13.861c0-7.656,6.202-13.859,13.857-13.859c7.656,0,13.857,6.203,13.857,13.859
	C93.857,87.656,87.656,93.861,80,93.861z"/>
</svg>
