<?xml version="1.0" encoding="utf-8"?>
<!-- Generator: Adobe Illustrator 18.0.0, SVG Export Plug-In . SVG Version: 6.00 Build 0)  -->
<!DOCTYPE svg PUBLIC "-//W3C//DTD SVG 1.1//EN" "http://www.w3.org/Graphics/SVG/1.1/DTD/svg11.dtd">
<svg version="1.1" id="Layer_1" xmlns="http://www.w3.org/2000/svg" xmlns:xlink="http://www.w3.org/1999/xlink" x="0px" y="0px"
	 viewBox="0 0 512 512" enable-background="new 0 0 512 512" xml:space="preserve">
<g>
	<defs>
		<circle id="SVGID_1_" cx="256" cy="256" r="256"/>
	</defs>
	<clipPath id="SVGID_2_">
		<use xlink:href="#SVGID_1_"  overflow="visible"/>
	</clipPath>
	<circle clip-path="url(#SVGID_2_)" fill="#0090FF" cx="256" cy="256" r="256"/>
	<g clip-path="url(#SVGID_2_)">
		<path fill="#FFFFFF" d="M245.9,99.6c-0.3-2-0.6-4-0.8-6.1c-10.5,16.3-15.2,36.5-11.7,57.2c7.4,44,49.2,73.6,93.2,66.2
			c19.1-3.2,35.5-12.9,47.3-26.4C312.7,198.7,255.9,158.8,245.9,99.6z"/>
		<path fill="#FFFFFF" d="M386.4,133.4c-7.4-44-49.2-73.6-93.2-66.2c-16,2.7-30.1,10-41.3,20.2c0.1,0.6,0.2,1.2,0.3,1.9
			c10,59.2,66.9,99.2,128.1,90.9C386.7,166.1,389.1,149.9,386.4,133.4z"/>
		<path fill="#FFFFFF" d="M233.3,179.2l-99.4,173.4c0,0-0.6,1.9-1,4.7c0.9,1.7,1.8,3.3,2.9,4.9l-3.3,5.7c0,0-0.4,1.2-0.7,3
			c3.9,7.6,11,13.1,19.4,15.2c2-0.8,4-1.9,5.3-3.6c0.3-0.3,1.1-1.3,2.3-2.7c1.4,0.5,2.8,0.9,4.3,1.3c3.1-1.2,6.2-3,8.4-5.6
			c4.6-5.7,122-141.2,128.7-148.7C271,224.3,245.2,206,233.3,179.2z"/>
	</g>
	<path clip-path="url(#SVGID_2_)" fill="none" stroke="#FFFFFF" stroke-width="15" stroke-miterlimit="10" d="M142.5,376
		c0,0-29,49,11.5,69.5s134-99,179-83s83,98,127.5,75"/>
</g>
</svg>
