<?xml version="1.0" encoding="utf-8"?>
<!-- Generator: Adobe Illustrator 16.0.0, SVG Export Plug-In . SVG Version: 6.00 Build 0)  -->
<!DOCTYPE svg PUBLIC "-//W3C//DTD SVG 1.1//EN" "http://www.w3.org/Graphics/SVG/1.1/DTD/svg11.dtd">
<svg version="1.1" id="Layer_1" xmlns="http://www.w3.org/2000/svg" xmlns:xlink="http://www.w3.org/1999/xlink" x="0px" y="0px"
	 width="160px" height="160px" viewBox="0 0 160 160" enable-background="new 0 0 160 160" xml:space="preserve">
<g id="Layer_1_1_">
</g>
<g id="Layer_2">
	<g>
		<g>
			<g>
				<g>
					<defs>
						<circle id="SVGID_1_" cx="80" cy="80" r="80"/>
					</defs>
					<clipPath id="SVGID_2_">
						<use xlink:href="#SVGID_1_"  overflow="visible"/>
					</clipPath>
					<circle clip-path="url(#SVGID_2_)" fill="#002156" cx="80" cy="80" r="80"/>
				</g>
			</g>
		</g>
		<g>
			<g>
				<g>
					<defs>
						<circle id="SVGID_3_" cx="80" cy="80" r="80"/>
					</defs>
					<clipPath id="SVGID_4_">
						<use xlink:href="#SVGID_3_"  overflow="visible"/>
					</clipPath>
					<g transform="matrix(1 0 0 1 0 -7.629395e-006)" clip-path="url(#SVGID_4_)">
					</g>
				</g>
			</g>
		</g>
	</g>
</g>
<g>
	<g>
		<path fill="#FFFFFF" d="M133.143,47.503c-3.931,1.901-8.108,3.129-12.546,3.698c4.517-2.907,7.979-7.483,9.626-12.969
			c-4.229,2.676-8.899,4.59-13.882,5.708c-3.957-4.583-9.652-7.441-15.906-7.441c-12.039,0-21.8,10.499-21.8,23.48
			c0,1.822,0.187,3.625,0.547,5.322c-18.086-0.935-34.177-10.317-44.939-24.493c-1.869,3.459-2.938,7.482-2.938,11.801
			c0,8.125,3.844,15.354,9.704,19.503c-3.581-0.146-6.946-1.144-9.88-2.92c0,0.097,0,0.217,0,0.321
			c0,11.353,7.515,20.828,17.49,23.021c-1.827,0.532-3.759,0.774-5.761,0.774c-1.4,0-2.73-0.097-4.077-0.419
			c2.763,9.362,10.823,16.161,20.362,16.301c-7.464,6.327-16.862,10.045-27.081,10.045c-1.764,0-3.506-0.103-5.205-0.327
			c9.647,6.691,21.086,10.59,33.429,10.59c40.103,0,62.05-35.783,62.05-66.802c0-0.992-0.026-1.999-0.078-3.003
			C126.513,56.34,130.223,52.2,133.143,47.503z"/>
	</g>
</g>
</svg>
